<svg xmlns="http://www.w3.org/2000/svg" width="612" height="612"><path d="M554.307 146.548c-1.96-31.153-12.153-57.806-30.518-79.606-34.976-41.509-97.85-63.379-181.828-63.379C309.296 3.562 140.407 0 138.708 0h-.32c-6.795 0-12.717 4.562-14.212 11.231L10.92 516.528c-.971 4.319.078 8.702 2.844 12.157 2.757 3.446 6.95 5.314 11.367 5.314h75.101L86.53 594.035c-.99 4.319.039 8.933 2.806 12.399 2.757 3.475 6.95 5.564 11.387 5.564h189.41c6.97 0 12.979-4.96 14.289-11.823l23.745-123.497 88.706-.729c.437-.01.873-.028 1.319-.077 1.495-.146 150.406-16.9 180.081-190.051 12.784-74.623-15.494-116.557-43.966-139.273zM149.988 29.129c39.548.854 163.735 3.637 191.973 3.637 74.038 0 130.709 19.132 159.56 53.37 21.512 25.53 28.607 61.213 21.095 105.052-26.793 156.356-152.134 175.297-163.443 176.598L253.391 369h-.097c-6.96 0-12.94 2.912-14.289 9.746L213.794 505H43.323L149.988 29.129zm419.581 251.763c-25.22 147.173-143.252 164.666-153.687 165.927l-99.889.806c-6.932.059-12.863 5.08-14.174 11.895L278.096 583H118.992l11.113-49h95.668c6.96 0 12.94-4.78 14.28-11.614l25.2-128.114 94.53.695c.476 0 .98.008 1.466-.031 1.583-.155 158.735-16.95 190.07-199.788.52-3.028.971-6.016 1.369-8.98 17.94 23.634 23.627 55.364 16.881 94.724z"/></svg>